<?xml version="1.0" encoding="utf-8"?>
<svg viewBox="46.275 153.235 274.248 70.635" xmlns="http://www.w3.org/2000/svg">
  <g style="" transform="matrix(0.140807, 0, 0, 0.140807, 46.270237, 160.188004)">
    <path style="fill:#194F82;" d="M359.854,0H32.743C14.707,0,0.032,14.675,0.032,32.711v241.972 c0,18.036,14.675,32.711,32.711,32.711h91.798l-5.495,21.786H91.83c-6.012,0-10.925,4.848-10.925,10.925v41.503 c0,6.012,4.848,10.925,10.925,10.925h208.873c6.012,0,10.925-4.848,10.925-10.925v-41.503c0-6.012-4.848-10.925-10.925-10.925 h-27.216l-5.495-21.786h91.798c18.036,0,32.711-14.675,32.711-32.711V32.711C392.566,14.675,377.891,0,359.854,0z M289.778,351.03 v19.717H102.82V351.03h24.824c5.042,0,9.374-3.426,10.602-8.275l8.792-35.362h98.586l8.792,35.362 c1.228,4.848,5.56,8.275,10.602,8.275H289.778z M359.854,285.608H32.743c-6.012,0-10.925-4.848-10.925-10.925V32.711 c0-6.012,4.848-10.925,10.925-10.925h327.111c6.012,0,10.925,4.848,10.925,10.925v242.036h0.065 C370.78,280.695,365.931,285.608,359.854,285.608z"/>
    <path style="fill:#194F82;" d="M338.004,43.572H54.594c-6.012,0-10.925,4.848-10.925,10.925v198.335 c0,6.012,4.848,10.925,10.925,10.925h283.539c6.012,0,10.925-4.848,10.925-10.925V54.562 C348.994,48.549,344.016,43.572,338.004,43.572z M327.208,241.907h-0.065H65.454v-88.566h13.188 c6.012,0,10.925-4.848,10.925-10.925c0-6.012-4.848-10.925-10.925-10.925H65.454V109.64h34.974c6.012,0,10.925-4.848,10.925-10.925 c0-6.012-4.848-10.925-10.925-10.925H65.454V65.293h261.754V241.907L327.208,241.907z"/>
    <path style="fill:#194F82;" d="M109.155,161.099l34.521,34.521c6.723,6.206,13.317,2.133,15.451,0 c4.267-4.267,4.267-11.119,0-15.451l-26.828-26.764l26.828-26.828c4.267-4.267,4.267-11.119,0-15.451 c-4.267-4.267-11.119-4.267-15.451,0l-34.521,34.521C104.889,149.915,104.889,156.768,109.155,161.099z"/>
    <path style="fill:#194F82;" d="M233.535,195.62c4.978,5.042,12.283,3.556,15.451,0l34.521-34.521 c4.267-4.267,4.267-11.119,0-15.451l-34.521-34.521c-4.267-4.267-11.119-4.267-15.451,0c-4.267,4.267-4.267,11.119,0,15.451 l26.828,26.828l-26.828,26.828C229.269,184.436,229.269,191.289,233.535,195.62z"/>
    <path style="fill:#194F82;" d="M174.254,219.152c6.853,2.069,12.283-2.263,13.834-6.788l37.883-110.222 c1.939-5.689-1.099-11.895-6.788-13.834c-5.689-1.939-11.895,1.099-13.834,6.788l-37.883,110.222 C165.527,210.941,168.501,217.341,174.254,219.152z"/>
  </g>
  <path d="M 187.019 174.178 L 187.537 174.178 Q 188.054 174.178 188.266 174.484 Q 188.477 174.79 188.477 175.001 Q 188.477 175.213 188.43 175.354 L 180.012 205.593 Q 179.542 207.145 178.061 207.145 Q 176.579 207.145 176.156 205.593 L 170.371 184.901 L 164.587 205.687 Q 164.07 207.145 162.682 207.145 Q 161.295 207.145 160.778 205.687 L 151.89 175.401 Q 151.842 175.213 151.842 174.978 Q 151.842 174.743 152.054 174.461 Q 152.266 174.178 152.783 174.178 L 153.253 174.178 Q 153.818 174.178 154.147 174.837 L 162.706 203.9 L 168.773 182.22 Q 169.149 180.903 170.442 180.903 Q 171.735 180.903 172.017 182.267 Q 173.005 185.841 175.051 193.06 Q 177.096 200.279 178.084 203.853 L 186.126 174.884 Q 186.22 174.649 186.479 174.414 Q 186.737 174.178 187.019 174.178 Z" transform="matrix(1.352871, 0, 0, 1.231972, -93.713486, -46.78933)" style="fill: rgb(25, 79, 130); line-height: 73.9473px; white-space: pre;"/>
  <path d="M 193.83 174.178 L 201.12 174.178 Q 204.412 174.178 207.186 175.966 Q 208.644 176.906 209.538 178.693 Q 210.431 180.48 210.431 182.926 Q 210.431 186.641 208.268 189.157 Q 206.105 191.673 200.743 191.673 L 197.64 191.673 Q 197.216 191.673 196.958 191.391 Q 196.699 191.109 196.699 190.732 L 196.699 190.309 Q 196.699 189.369 197.64 189.369 L 200.179 189.369 Q 205.305 189.369 206.81 187.205 Q 208.08 185.418 208.08 182.879 Q 208.08 179.54 205.94 178.035 Q 203.8 176.53 200.884 176.53 L 194.112 176.53 L 194.112 206.157 Q 194.112 206.534 193.83 206.816 Q 193.548 207.098 193.172 207.098 L 192.702 207.098 Q 192.325 207.098 192.043 206.816 Q 191.761 206.534 191.761 206.157 L 191.761 176.248 Q 191.761 175.025 192.184 174.602 Q 192.608 174.178 193.83 174.178 Z" transform="matrix(1.352871, 0, 0, 1.231972, -93.713486, -46.78933)" style="fill: rgb(25, 79, 130); line-height: 73.9473px; white-space: pre;"/>
  <path d="M 224.167 174.178 Q 228.258 174.178 230.468 176.318 Q 232.679 178.458 232.679 181.985 Q 232.679 183.96 231.456 186.523 Q 230.233 189.086 229.057 190.732 Q 226.33 194.636 221.721 199.95 L 220.31 201.643 Q 219.135 203.054 218.5 203.9 Q 217.865 204.747 217.724 204.888 Q 217.818 204.841 218.006 204.841 L 232.443 204.841 Q 233.384 204.841 233.384 205.734 L 233.384 206.157 Q 233.384 207.098 232.443 207.098 L 217.959 207.098 Q 217.206 207.098 216.76 207.004 Q 216.313 206.91 215.866 206.369 Q 215.419 205.828 215.419 204.864 Q 215.419 203.9 217.442 201.361 L 219.417 199.103 Q 219.84 198.586 220.357 197.975 Q 221.58 196.564 222.568 195.294 L 223.837 193.789 Q 224.119 193.413 224.99 192.308 Q 225.86 191.203 226.189 190.779 Q 226.518 190.356 227.247 189.369 Q 227.976 188.381 228.281 187.84 Q 228.587 187.299 229.081 186.429 Q 229.575 185.559 229.81 184.948 Q 230.374 183.49 230.374 182.22 Q 230.374 179.258 228.54 177.847 Q 226.706 176.436 224.167 176.436 Q 219.652 176.436 217.912 180.668 Q 217.63 181.233 217.065 181.233 L 216.642 181.233 Q 215.701 181.233 215.701 180.386 Q 215.701 180.151 215.749 180.057 Q 216.689 177.282 218.97 175.73 Q 221.251 174.178 224.167 174.178 Z" transform="matrix(1.352871, 0, 0, 1.231972, -93.713486, -46.78933)" style="fill: rgb(25, 79, 130); line-height: 73.9473px; white-space: pre;"/>
  <path d="M 247.486 177.753 L 247.956 177.753 Q 248.897 177.753 248.897 178.646 L 248.897 206.157 Q 248.897 206.534 248.638 206.816 Q 248.38 207.098 247.956 207.098 L 247.486 207.098 Q 247.063 207.098 246.804 206.816 Q 246.545 206.534 246.545 206.157 L 246.545 178.646 Q 246.545 177.753 247.486 177.753 Z M 237.328 174.178 L 258.208 174.178 Q 258.632 174.178 258.89 174.461 Q 259.149 174.743 259.149 175.119 L 259.149 175.636 Q 259.149 176.483 258.208 176.483 L 237.328 176.483 Q 236.387 176.483 236.387 175.636 L 236.387 175.119 Q 236.387 174.743 236.67 174.461 Q 236.952 174.178 237.328 174.178 Z" transform="matrix(1.352871, 0, 0, 1.231972, -93.713486, -46.78933)" style="fill: rgb(25, 79, 130); line-height: 73.9473px; white-space: pre;"/>
  <path d="M 279.324 174.178 L 279.841 174.178 Q 280.405 174.178 280.664 174.649 Q 280.923 175.119 280.64 175.589 L 280.64 175.542 L 272.693 190.027 Q 272.646 190.074 272.528 190.262 Q 272.411 190.45 272.317 190.544 L 272.599 190.92 L 281.111 205.734 Q 281.252 205.969 281.252 206.204 Q 281.252 206.44 281.064 206.769 Q 280.876 207.098 280.311 207.098 L 279.747 207.098 Q 279.23 207.098 279.042 206.816 L 270.906 192.707 Q 270.435 193.507 267.167 198.751 Q 263.899 203.994 262.253 206.675 Q 261.923 207.098 261.453 207.098 L 260.889 207.098 Q 260.277 207.098 260.042 206.628 Q 259.807 206.157 260.089 205.64 L 269.307 190.92 L 269.307 190.967 Q 269.495 190.591 269.636 190.45 Q 269.448 190.262 269.401 190.121 L 259.666 175.636 Q 259.525 175.401 259.525 175.166 Q 259.525 174.931 259.713 174.555 Q 259.901 174.178 260.465 174.178 L 260.983 174.178 Q 261.453 174.178 261.782 174.602 L 271 188.287 L 278.571 174.461 Q 278.759 174.178 279.324 174.178 Z" transform="matrix(1.352871, 0, 0, 1.231972, -93.713486, -46.78933)" style="fill: rgb(25, 79, 130); line-height: 73.9473px; white-space: pre;"/>
  <path d="M 293.994 177.753 L 294.464 177.753 Q 295.405 177.753 295.405 178.646 L 295.405 206.157 Q 295.405 206.534 295.146 206.816 Q 294.888 207.098 294.464 207.098 L 293.994 207.098 Q 293.571 207.098 293.312 206.816 Q 293.054 206.534 293.054 206.157 L 293.054 178.646 Q 293.054 177.753 293.994 177.753 Z M 283.836 174.178 L 304.716 174.178 Q 305.14 174.178 305.398 174.461 Q 305.657 174.743 305.657 175.119 L 305.657 175.636 Q 305.657 176.483 304.716 176.483 L 283.836 176.483 Q 282.896 176.483 282.896 175.636 L 282.896 175.119 Q 282.896 174.743 283.178 174.461 Q 283.46 174.178 283.836 174.178 Z" transform="matrix(1.352871, 0, 0, 1.231972, -93.713486, -46.78933)" style="fill: rgb(25, 79, 130); line-height: 73.9473px; white-space: pre;"/>
</svg>